<svg class="secret-illustration secret-sticker" xmlns="http://www.w3.org/2000/svg" height="310" width="310" viewBox="0 0 310 310" alt="Limited Time Offer: Woodbox Edition! Click here to preview">
<g>
  <path class="secret-illustration-fill" d="M99.7,74.9c-0.6,0-1,0.1-1.3,0.3s-0.4,0.6-0.4,1.1c0,0.5,0.1,0.9,0.4,1.1c0.2,0.2,0.7,0.3,1.2,0.3h12.2 c0.6,0,0.9-0.1,1.1-0.2c0.2-0.2,0.3-0.5,0.3-1v-4.1c0-0.6-0.1-1-0.3-1.3c-0.2-0.3-0.6-0.4-1.1-0.4c-0.5,0-0.9,0.1-1.1,0.4 c-0.2,0.3-0.3,0.7-0.3,1.3v2.4h-6.1v-10h1.2c0.6,0,1-0.1,1.3-0.4c0.3-0.2,0.4-0.6,0.4-1.1c0-0.5-0.1-0.9-0.4-1.1 c-0.3-0.2-0.7-0.4-1.3-0.4h-5.7c-0.6,0-1,0.1-1.3,0.4c-0.3,0.2-0.4,0.6-0.4,1.1c0,0.5,0.1,0.9,0.4,1.1c0.2,0.2,0.7,0.4,1.2,0.4h1.2 v10H99.7z"></path>
  <path class="secret-illustration-fill" d="M118.2,74.9c-0.6,0-1.1,0.1-1.3,0.3c-0.3,0.2-0.4,0.6-0.4,1.1c0,0.5,0.1,0.9,0.4,1.1c0.3,0.2,0.7,0.3,1.3,0.3 h8c0.6,0,1-0.1,1.3-0.4c0.3-0.2,0.4-0.6,0.4-1.1c0-0.5-0.1-0.9-0.4-1.1c-0.3-0.2-0.7-0.3-1.3-0.3H124v-10h2.3 c0.6,0,1.1-0.1,1.3-0.4c0.3-0.2,0.4-0.6,0.4-1.1c0-0.5-0.1-0.9-0.4-1.1c-0.3-0.2-0.7-0.3-1.3-0.3h-8c-0.6,0-1.1,0.1-1.3,0.3 c-0.3,0.2-0.4,0.6-0.4,1.1c0,0.5,0.1,0.9,0.4,1.1s0.7,0.4,1.3,0.4h2.3v10H118.2z"></path>
  <path class="secret-illustration-fill" d="M131.6,74.9c-0.5,0-0.8,0.1-1.1,0.4s-0.4,0.6-0.4,1.1c0,0.5,0.1,0.9,0.4,1.1c0.3,0.2,0.7,0.3,1.3,0.3h3 c0.6,0,1-0.1,1.3-0.3c0.3-0.2,0.4-0.6,0.4-1.1c0-0.5-0.1-0.8-0.4-1.1s-0.6-0.4-1.1-0.4h-0.2l0.2-8.2l1.9,6.1c0.1,0.5,0.3,0.8,0.6,1 c0.3,0.2,0.6,0.3,1.1,0.3c0.5,0,0.8-0.1,1.1-0.3c0.3-0.2,0.5-0.5,0.6-1l2-6.1l0.2,8.2h-0.2c-0.5,0-0.8,0.1-1.1,0.4 s-0.4,0.6-0.4,1.1c0,0.5,0.1,0.9,0.4,1.1c0.3,0.2,0.7,0.3,1.3,0.3h3c0.6,0,1-0.1,1.3-0.3c0.3-0.2,0.4-0.6,0.4-1.1 c0-0.5-0.1-0.8-0.4-1.1c-0.2-0.2-0.6-0.4-1.1-0.4h-0.2l-0.4-10h0.2c0.5,0,0.9-0.1,1.1-0.4c0.3-0.2,0.4-0.6,0.4-1.1 c0-0.5-0.1-0.9-0.4-1.1c-0.3-0.2-0.7-0.3-1.3-0.3h-2.1c-0.5,0-0.9,0.1-1.1,0.3c-0.3,0.2-0.5,0.6-0.7,1.1l-2.6,7.6l-2.6-7.6 c-0.2-0.5-0.4-0.9-0.7-1.1c-0.3-0.2-0.7-0.3-1.1-0.3h-2.1c-0.6,0-1,0.1-1.3,0.3c-0.3,0.2-0.4,0.6-0.4,1.1c0,0.5,0.1,0.9,0.4,1.1 s0.6,0.4,1.1,0.4h0.2l-0.4,10H131.6z"></path>
  <path class="secret-illustration-fill" d="M151.2,74.9c-0.6,0-1.1,0.1-1.3,0.3c-0.3,0.2-0.4,0.6-0.4,1.1c0,0.5,0.1,0.9,0.4,1.1c0.3,0.2,0.7,0.3,1.3,0.3 h8c0.6,0,1-0.1,1.3-0.4c0.3-0.2,0.4-0.6,0.4-1.1c0-0.5-0.1-0.9-0.4-1.1c-0.3-0.2-0.7-0.3-1.3-0.3H157v-10h2.3 c0.6,0,1.1-0.1,1.3-0.4c0.3-0.2,0.4-0.6,0.4-1.1c0-0.5-0.1-0.9-0.4-1.1c-0.2-0.2-0.7-0.3-1.3-0.3h-8c-0.6,0-1.1,0.1-1.3,0.3 c-0.3,0.2-0.4,0.6-0.4,1.1c0,0.5,0.1,0.9,0.4,1.1c0.3,0.2,0.7,0.4,1.3,0.4h2.3v10H151.2z"></path>
  <path class="secret-illustration-fill" d="M178.7,62.2c-0.2-0.2-0.6-0.2-1.2-0.2h-11.5c-0.6,0-1,0.1-1.2,0.2s-0.3,0.6-0.3,1.4l-0.1,4v0.1 c0,0.6,0.1,1,0.4,1.2c0.2,0.3,0.6,0.4,1.1,0.4c0.4,0,0.8-0.1,1-0.4c0.2-0.2,0.4-0.6,0.4-1v-0.3l0.1-2.7h2.8v10h-2.3 c-0.6,0-1,0.1-1.3,0.3c-0.3,0.2-0.4,0.6-0.4,1.1c0,0.5,0.1,0.9,0.4,1.1c0.3,0.2,0.7,0.3,1.3,0.3h8c0.6,0,1-0.1,1.3-0.3 c0.3-0.2,0.4-0.6,0.4-1.1c0-0.5-0.1-0.9-0.4-1.1c-0.3-0.2-0.7-0.3-1.3-0.3h-2.3v-10h2.8l0.1,2.7c0,0.6,0.1,1.1,0.3,1.3 c0.2,0.2,0.6,0.4,1,0.4c0.5,0,0.9-0.1,1.1-0.4s0.3-0.7,0.3-1.2v-0.1l-0.1-4C179,62.8,178.9,62.3,178.7,62.2z"></path>
  <path class="secret-illustration-fill" d="M182.3,74.9c-0.5,0-0.8,0.1-1.1,0.4s-0.4,0.6-0.4,1.1c0,0.5,0.1,0.9,0.4,1.1c0.3,0.2,0.7,0.3,1.3,0.3h11 c0.6,0,0.9-0.1,1.1-0.2c0.2-0.2,0.3-0.5,0.3-1v-3.2c0-0.6-0.1-1-0.3-1.3c-0.2-0.3-0.6-0.4-1.1-0.4c-0.5,0-0.9,0.1-1.1,0.4 c-0.2,0.3-0.3,0.7-0.3,1.3V75h-6.2v-4h2.4v0.2c0,0.5,0.1,0.8,0.3,1.1c0.2,0.2,0.6,0.4,1,0.4c0.5,0,0.8-0.1,1-0.4 c0.2-0.3,0.3-0.7,0.3-1.3v-2.8c0-0.1,0-0.2,0-0.3c0-0.1,0-0.2,0-0.2c0-0.3-0.1-0.6-0.4-0.9c-0.3-0.2-0.6-0.3-1-0.3 c-0.5,0-0.8,0.1-1,0.4c-0.2,0.2-0.3,0.6-0.3,1.1v0.2h-2.4v-3.4h6.2v1.4c0,0.6,0.1,1,0.3,1.3c0.2,0.3,0.6,0.4,1.1,0.4 c0.5,0,0.9-0.1,1.1-0.4c0.2-0.3,0.3-0.7,0.3-1.3v-3c0-0.5-0.1-0.8-0.3-1c-0.2-0.2-0.6-0.2-1.1-0.2h-11c-0.6,0-1,0.1-1.3,0.4 c-0.3,0.2-0.4,0.6-0.4,1.1c0,0.5,0.1,0.8,0.4,1.1c0.2,0.3,0.6,0.4,1.1,0.4h0.2v10H182.3z"></path>
  <path class="secret-illustration-fill" d="M198.8,74.9c-0.5,0-0.9,0.1-1.1,0.4s-0.4,0.6-0.4,1.1c0,0.5,0.1,0.9,0.4,1.1c0.3,0.2,0.7,0.3,1.3,0.3h2.5h1.5 c1.4,0,2.5-0.1,3.3-0.2c0.7-0.1,1.4-0.3,1.9-0.6c1.2-0.6,2.1-1.6,2.8-2.8c0.7-1.2,1-2.7,1-4.3c0-1.6-0.3-2.9-0.9-4.1 c-0.6-1.2-1.4-2.1-2.5-2.8c-0.6-0.4-1.3-0.6-2.2-0.8c-0.9-0.2-2.2-0.2-4.1-0.2h-0.8h-2.5c-0.6,0-1,0.1-1.3,0.4 c-0.3,0.2-0.4,0.6-0.4,1.1c0,0.5,0.1,0.9,0.4,1.1s0.6,0.4,1.1,0.4h0.2v10H198.8z M202.5,64.9c0.1,0,0.2,0,0.3,0c0.1,0,0.3,0,0.5,0 c1.6,0,2.9,0.4,3.7,1.2c0.8,0.8,1.2,2.1,1.2,3.8c0,1.7-0.4,3-1.2,3.8c-0.8,0.8-2.1,1.2-3.7,1.2h-0.8V64.9z"></path>
  <path class="secret-illustration-fill" d="M85.5,94.9l0.1,2.7c0,0.6,0.1,1.1,0.3,1.3c0.2,0.2,0.6,0.4,1,0.4c0.5,0,0.9-0.1,1.1-0.4 c0.2-0.2,0.3-0.7,0.3-1.2v-0.1l-0.1-4c0-0.8-0.1-1.3-0.3-1.4c-0.2-0.2-0.6-0.2-1.2-0.2H75.2c-0.6,0-1,0.1-1.2,0.2 c-0.2,0.2-0.3,0.6-0.3,1.4l-0.1,4v0.1c0,0.6,0.1,1,0.4,1.2c0.2,0.3,0.6,0.4,1.1,0.4c0.4,0,0.8-0.1,1-0.4c0.2-0.2,0.4-0.6,0.4-1 v-0.3l0.1-2.7h2.8v10H77c-0.6,0-1,0.1-1.3,0.3c-0.3,0.2-0.4,0.6-0.4,1.1c0,0.5,0.1,0.9,0.4,1.1c0.3,0.2,0.7,0.3,1.3,0.3h8 c0.6,0,1-0.1,1.3-0.3c0.3-0.2,0.4-0.6,0.4-1.1c0-0.5-0.1-0.9-0.4-1.1c-0.3-0.2-0.7-0.3-1.3-0.3h-2.3v-10H85.5z"></path>
  <path class="secret-illustration-fill" d="M93.5,104.9c-0.6,0-1.1,0.1-1.3,0.3c-0.3,0.2-0.4,0.6-0.4,1.1c0,0.5,0.1,0.9,0.4,1.1c0.3,0.2,0.7,0.3,1.3,0.3 h8c0.6,0,1-0.1,1.3-0.4c0.3-0.2,0.4-0.6,0.4-1.1c0-0.5-0.1-0.9-0.4-1.1c-0.3-0.2-0.7-0.3-1.3-0.3h-2.3v-10h2.3 c0.6,0,1.1-0.1,1.3-0.4c0.3-0.2,0.4-0.6,0.4-1.1c0-0.5-0.1-0.9-0.4-1.1c-0.2-0.2-0.7-0.3-1.3-0.3h-8c-0.6,0-1.1,0.1-1.3,0.3 c-0.3,0.2-0.4,0.6-0.4,1.1c0,0.5,0.1,0.9,0.4,1.1c0.3,0.2,0.7,0.4,1.3,0.4h2.3v10H93.5z"></path>
  <path class="secret-illustration-fill" d="M111.4,93.4c-0.2-0.5-0.4-0.9-0.7-1.1c-0.3-0.2-0.7-0.3-1.1-0.3h-2.1c-0.6,0-1,0.1-1.3,0.3 c-0.3,0.2-0.4,0.6-0.4,1.1c0,0.5,0.1,0.9,0.4,1.1s0.6,0.4,1.1,0.4h0.2l-0.4,10h-0.2c-0.5,0-0.8,0.1-1.1,0.4s-0.4,0.6-0.4,1.1 c0,0.5,0.1,0.9,0.4,1.1c0.3,0.2,0.7,0.3,1.3,0.3h3c0.6,0,1-0.1,1.3-0.3c0.3-0.2,0.4-0.6,0.4-1.1c0-0.5-0.1-0.8-0.4-1.1 s-0.6-0.4-1.1-0.4h-0.2l0.2-8.2l1.9,6.1c0.1,0.5,0.3,0.8,0.6,1c0.3,0.2,0.6,0.3,1.1,0.3s0.8-0.1,1.1-0.3c0.3-0.2,0.5-0.5,0.6-1 l2-6.1l0.2,8.2h-0.2c-0.5,0-0.8,0.1-1.1,0.4s-0.4,0.6-0.4,1.1c0,0.5,0.1,0.9,0.4,1.1c0.3,0.2,0.7,0.3,1.3,0.3h3 c0.6,0,1-0.1,1.3-0.3c0.3-0.2,0.4-0.6,0.4-1.1c0-0.5-0.1-0.8-0.4-1.1c-0.2-0.2-0.6-0.4-1.1-0.4h-0.2l-0.4-10h0.2 c0.5,0,0.9-0.1,1.1-0.4s0.4-0.6,0.4-1.1c0-0.5-0.1-0.9-0.4-1.1c-0.3-0.2-0.7-0.3-1.3-0.3h-2.1c-0.5,0-0.9,0.1-1.1,0.3 c-0.3,0.2-0.5,0.6-0.7,1.1L114,101L111.4,93.4z"></path>
  <path class="secret-illustration-fill" d="M123.6,92.3c-0.3,0.2-0.4,0.6-0.4,1.1c0,0.5,0.1,0.8,0.4,1.1c0.2,0.3,0.6,0.4,1.1,0.4h0.2v10h-0.2 c-0.5,0-0.8,0.1-1.1,0.4s-0.4,0.6-0.4,1.1c0,0.5,0.1,0.9,0.4,1.1c0.3,0.2,0.7,0.3,1.3,0.3h11c0.6,0,0.9-0.1,1.1-0.2 c0.2-0.2,0.3-0.5,0.3-1v-3.2c0-0.6-0.1-1-0.3-1.3c-0.2-0.3-0.6-0.4-1.1-0.4c-0.5,0-0.9,0.1-1.1,0.4c-0.2,0.3-0.3,0.7-0.3,1.3v1.6 h-6.2v-4h2.4v0.2c0,0.5,0.1,0.8,0.3,1.1c0.2,0.2,0.6,0.4,1,0.4c0.5,0,0.8-0.1,1-0.4c0.2-0.3,0.3-0.7,0.3-1.3v-2.8 c0-0.1,0-0.2,0-0.3c0-0.1,0-0.2,0-0.2c0-0.3-0.1-0.6-0.4-0.9c-0.3-0.2-0.6-0.3-1-0.3c-0.5,0-0.8,0.1-1,0.4 c-0.2,0.2-0.3,0.6-0.3,1.1v0.2h-2.4v-3.4h6.2v1.4c0,0.6,0.1,1,0.3,1.3c0.2,0.3,0.6,0.4,1.1,0.4c0.5,0,0.9-0.1,1.1-0.4 c0.2-0.3,0.3-0.7,0.3-1.3v-3c0-0.5-0.1-0.8-0.3-1c-0.2-0.2-0.6-0.2-1.1-0.2h-11C124.2,92,123.8,92.1,123.6,92.3z"></path>
  <path class="secret-illustration-fill" d="M158,93.9c-1.4,1.6-2.1,3.6-2.1,6c0,2.4,0.7,4.4,2.1,6c1.4,1.6,3.2,2.4,5.4,2.4c2.2,0,4-0.8,5.5-2.4 c1.4-1.6,2.1-3.6,2.1-6c0-2.4-0.7-4.5-2.1-6c-1.4-1.6-3.2-2.4-5.4-2.4C161.2,91.5,159.4,92.3,158,93.9z M166.2,96 c0.7,0.9,1,2.2,1,3.9c0,1.7-0.3,3-1,3.9s-1.6,1.4-2.7,1.4c-1.1,0-2-0.5-2.7-1.4c-0.7-0.9-1-2.2-1-3.9c0-1.7,0.3-2.9,1-3.9 c0.7-0.9,1.6-1.4,2.7-1.4C164.6,94.6,165.5,95.1,166.2,96z"></path>
  <path class="secret-illustration-fill" d="M173.2,92.3c-0.3,0.2-0.4,0.6-0.4,1.1c0,0.5,0.1,0.8,0.4,1.1c0.2,0.3,0.6,0.4,1.1,0.4h0.2v10h-0.2 c-0.5,0-0.8,0.1-1.1,0.4s-0.4,0.6-0.4,1.1c0,0.5,0.1,0.9,0.4,1.1c0.3,0.2,0.7,0.3,1.3,0.3h4c0.6,0,1-0.1,1.3-0.3 c0.3-0.2,0.4-0.6,0.4-1.1c0-0.5-0.1-0.9-0.4-1.1c-0.3-0.2-0.7-0.3-1.3-0.3h-0.8V101h2.3v0.2c0,0.5,0.1,0.8,0.3,1.1 c0.2,0.2,0.6,0.4,1,0.4c0.5,0,0.8-0.1,1-0.4c0.2-0.3,0.3-0.7,0.3-1.3v-2.8v-0.5c0-0.3-0.1-0.6-0.4-0.9c-0.3-0.2-0.6-0.3-1-0.3 c-0.5,0-0.8,0.1-1,0.4s-0.3,0.6-0.3,1.1v0.2h-2.3v-3.4h6.2v1.4c0,0.6,0.1,1,0.3,1.3c0.2,0.3,0.6,0.4,1.1,0.4c0.5,0,0.9-0.1,1.1-0.4 c0.2-0.3,0.3-0.7,0.3-1.3v-3c0-0.5-0.1-0.8-0.3-1c-0.2-0.2-0.6-0.2-1.1-0.2h-11C173.9,92,173.5,92.1,173.2,92.3z"></path>
  <path class="secret-illustration-fill" d="M189.7,92.3c-0.3,0.2-0.4,0.6-0.4,1.1c0,0.5,0.1,0.8,0.4,1.1c0.2,0.3,0.6,0.4,1.1,0.4h0.2v10h-0.2 c-0.5,0-0.8,0.1-1.1,0.4c-0.2,0.2-0.4,0.6-0.4,1.1c0,0.5,0.1,0.9,0.4,1.1c0.3,0.2,0.7,0.3,1.3,0.3h4c0.6,0,1-0.1,1.3-0.3 c0.3-0.2,0.4-0.6,0.4-1.1c0-0.5-0.1-0.9-0.4-1.1c-0.3-0.2-0.7-0.3-1.3-0.3h-0.8V101h2.3v0.2c0,0.5,0.1,0.8,0.3,1.1 c0.2,0.2,0.6,0.4,1,0.4c0.5,0,0.8-0.1,1-0.4c0.2-0.3,0.3-0.7,0.3-1.3v-2.8v-0.5c0-0.3-0.1-0.6-0.4-0.9c-0.3-0.2-0.6-0.3-1-0.3 c-0.5,0-0.8,0.1-1,0.4c-0.2,0.3-0.3,0.6-0.3,1.1v0.2h-2.3v-3.4h6.2v1.4c0,0.6,0.1,1,0.3,1.3c0.2,0.3,0.6,0.4,1.1,0.4 c0.5,0,0.9-0.1,1.1-0.4c0.2-0.3,0.3-0.7,0.3-1.3v-3c0-0.5-0.1-0.8-0.3-1c-0.2-0.2-0.6-0.2-1.1-0.2h-11 C190.4,92,190,92.1,189.7,92.3z"></path>
  <path class="secret-illustration-fill" d="M218.3,92h-11c-0.6,0-1,0.1-1.3,0.4c-0.3,0.2-0.4,0.6-0.4,1.1c0,0.5,0.1,0.8,0.4,1.1c0.2,0.3,0.6,0.4,1.1,0.4 h0.2v10h-0.2c-0.5,0-0.8,0.1-1.1,0.4s-0.4,0.6-0.4,1.1c0,0.5,0.1,0.9,0.4,1.1c0.3,0.2,0.7,0.3,1.3,0.3h11c0.6,0,0.9-0.1,1.1-0.2 c0.2-0.2,0.3-0.5,0.3-1v-3.2c0-0.6-0.1-1-0.3-1.3c-0.2-0.3-0.6-0.4-1.1-0.4c-0.5,0-0.9,0.1-1.1,0.4c-0.2,0.3-0.3,0.7-0.3,1.3v1.6 h-6.2v-4h2.4v0.2c0,0.5,0.1,0.8,0.3,1.1c0.2,0.2,0.6,0.4,1,0.4c0.5,0,0.8-0.1,1-0.4c0.2-0.3,0.3-0.7,0.3-1.3v-2.8 c0-0.1,0-0.2,0-0.3c0-0.1,0-0.2,0-0.2c0-0.3-0.1-0.6-0.4-0.9c-0.3-0.2-0.6-0.3-1-0.3c-0.5,0-0.8,0.1-1,0.4 c-0.2,0.2-0.3,0.6-0.3,1.1v0.2h-2.4v-3.4h6.2v1.4c0,0.6,0.1,1,0.3,1.3c0.2,0.3,0.6,0.4,1.1,0.4c0.5,0,0.9-0.1,1.1-0.4 c0.2-0.3,0.3-0.7,0.3-1.3v-3c0-0.5-0.1-0.8-0.3-1C219.2,92,218.8,92,218.3,92z"></path>
  <path class="secret-illustration-fill" d="M223.8,104.9c-0.5,0-0.8,0.1-1.1,0.4s-0.4,0.6-0.4,1.1c0,0.5,0.1,0.9,0.4,1.1c0.3,0.2,0.7,0.3,1.3,0.3h3.5 c0.6,0,1-0.1,1.3-0.3c0.3-0.2,0.4-0.6,0.4-1.1c0-0.5-0.1-0.8-0.4-1.1s-0.6-0.4-1.1-0.4h-0.2v-3.5h1.3c0.2,0,0.3,0.1,0.5,0.2 c0.2,0.1,0.3,0.3,0.4,0.5l3.3,5.1l0,0c0.3,0.5,0.8,0.8,1.4,0.8h1.6c0.6,0,1-0.1,1.3-0.3c0.3-0.2,0.4-0.6,0.4-1.1 c0-0.5-0.1-0.8-0.4-1.1c-0.3-0.2-0.7-0.4-1.2-0.4h-0.3h-0.1l-2.2-3.5c0,0-0.1-0.1-0.1-0.1c-0.2-0.4-0.5-0.6-0.7-0.8 c1-0.3,1.8-0.9,2.3-1.6c0.5-0.7,0.8-1.6,0.8-2.6c0-1.4-0.5-2.5-1.5-3.3c-1-0.7-2.4-1.1-4.3-1.1H224c-0.6,0-1,0.1-1.3,0.4 s-0.4,0.6-0.4,1.1c0,0.5,0.1,0.8,0.4,1.1c0.2,0.3,0.6,0.4,1.1,0.4h0.2v10H223.8z M227.3,94.8h2.3c0.9,0,1.6,0.1,2,0.4 c0.4,0.3,0.6,0.8,0.6,1.5c0,0.7-0.2,1.2-0.7,1.5c-0.4,0.3-1.2,0.4-2.3,0.4h-1.8V94.8z"></path>
  <path class="secret-illustration-fill" d="M64.6,129.5c-0.7,0.1-1.5,0.2-2.3,0.3c-0.8,0.1-1.5,0.2-2.3,0.3c-8.2,1.2-20.5,3.1-20.5,12.9 c-0.1,2.5,0.8,4.8,2.4,6.5c1.5,1.5,3.4,2.3,5.6,2.3c1.3,0,2.1-1.1,2.1-2.1c0-1-0.7-2-2.1-2c-2.3,0-3.9-1.9-3.9-4.6 c0-6.3,9.1-7.7,16.5-8.9l0.6-0.1c0.8-0.1,1.5-0.2,2.3-0.3c-3.8,10.7-8.2,25.9-8.2,29.8c0,5.5,2.6,8.6,7.4,8.8c3.3,0,6.7-2.8,10-8.2 c0.3,5.1,2.9,8.2,7,8.2c8.7,0,12.7-12.7,16.6-25l0.2-0.6c3.3-10.4,6.8-21.2,11.9-21.2c1.1,0,2.1-0.9,2.1-2.1c0-1.2-0.9-2.1-2.1-2.1 c-8.1,0-11.9,11.6-15.8,23.9l-0.2,0.5c-3.3,10.5-7,22.3-12.7,22.3c-0.8,0-2.9,0-2.9-4.8c0-5.5,3.7-16.5,8-29.3l0.8-2.3 c0.2-0.6,0.1-1.3-0.2-1.9c-0.4-0.6-1-0.9-1.7-0.9c-1,0-1.8,0.6-2.1,1.6c-0.6,2.8-7.6,22.1-9.3,25.7c-4.6,9.9-7.7,12-9.5,12 c-1.7-0.1-3.3-0.7-3.3-4.6c0-3.2,5.4-21.9,8.9-30.8c4.3-1.2,8.8-3.6,8.8-6.9c0-2.4-1.8-4-4.3-4C68.8,122,66.1,125.8,64.6,129.5z  M72.1,126.1c-0.1,0.3-0.8,1.1-2,1.7C70.9,126.7,71.7,126,72.1,126.1C72.1,126,72.1,126,72.1,126.1z"></path>
  <path class="secret-illustration-fill" d="M138.1,162.2c-0.9,0-1.5-0.2-2-0.6c2.6-4.7,4.5-10.4,4.5-14.1c0-4.3-2.6-7.1-6.8-7.2c-3.4,0-6.5,2.3-9.1,6.7 c-1.8,3-3.2,5.9-4,8.7c-1.9,4.5-3.8,6.5-5.9,6.5c-0.9,0-1.5-0.2-2-0.6c2.6-4.7,4.5-10.4,4.5-14.1c0-4.3-2.6-7.1-6.8-7.2 c-3.4,0-6.5,2.3-9.1,6.7c-3.5,5.7-5.2,11.1-5.2,16.4c0,5.7,3.3,6.8,6,6.8c2.7,0,5.7-1.9,8.3-5.1c1.3,0.9,2.8,1.3,4.4,1.3 c1.7,0,3.3-0.6,4.7-1.7c0.5,4.5,3.4,5.6,5.9,5.6c2.7,0,5.7-1.9,8.3-5.1c1.3,0.9,2.8,1.3,4.4,1.3c1.8,0,3.3-0.6,4.8-1.8 c0.5,3.5,2.5,5.6,5.6,5.6c2.5,0,4.8-1.3,7-4c0.6,2.5,2.4,4,5,4c3.5,0,6.1-1.8,8.5-4.9c1.5,3,4.7,4.9,8.6,4.9c4.7,0,8-2.4,10.6-6 c-0.1,0.4-0.1,0.7-0.1,1.1c0,5.1,4.5,8.6,11.2,8.6c8,0,14-6.3,14-14.6c0-3.7-1.1-7.1-3.2-9.7l-0.5-0.6c3.7-2.8,6.1-7.2,6.1-11.3 c0.1-3.6-1.1-6.8-3.5-9.2c-2.6-2.7-6.4-4.1-10.6-4.1c-12.7,0-20.6,8.9-20.6,23.3c0,1.1,0.9,2.1,2.1,2.1c1,0,2.1-0.8,2.1-2 c0.2-8.5,3.1-18.5,15.1-19.1c-1.8,0.9-3.5,2.7-4.4,4.5c-1.7,3.3-3.1,7.8-4.5,12.4l-0.3,0.9c-2.6,8.8-5.9,19.7-13.5,19.7 c-2.5,0-5.3-1.3-5.3-4.8c0-0.6,0.1-1.3,0.3-1.9c0.3-0.6,0.6-1.3,0.9-1.9c1-1.5,2.6-2.5,4.1-2.5c0.3,0,0.5,0,0.7,0.1 c0.6,0.2,1.3,0.1,1.8-0.3c0.5-0.4,0.8-1,0.8-1.7c0-0.8-0.5-1.6-1.4-2c-0.7-0.3-1.4-0.3-2-0.3c-2.8,0-5.5,1.7-7.3,4.2 c-0.2,0.2-0.3,0.3-0.4,0.5c-0.1,0.2-0.2,0.4-0.3,0.6c-0.2,0.4-0.5,0.9-0.7,1.4c-2.6,5.3-5.1,8.7-8.3,8.7c-0.3,0-1.1,0-1.1-1.7 c0-1.7,1.5-6.1,1.9-7.6c0.4-1.2,4.1-12,6.4-18.4c0.9-2.7,1.7-4.8,1.8-5.3c0.2-0.6,0.1-1.3-0.3-1.9c-0.9-1.2-3.1-1-3.6,0.5l-3.2,9.1 l-0.6,1.6c-1.2-1.4-3-2.1-5.2-2.1c-6,0-10.8,8.1-12.9,15.4C142,160.1,140.1,162.2,138.1,162.2z M147.8,157c0.1-0.2,0.1-0.3,0.1-0.5 c1.8-5.8,5.4-12,8.8-12.2c2.4,0,2.9,1.9,3,3.6c-0.2,0.5-0.4,1-0.7,1.6c-0.2,0.6-0.5,1.2-0.7,1.8l0,0c-2.1,5.4-5.7,14.5-10,14.5 c-0.5,0-1.5,0-1.5-3.5C146.9,160.9,147.2,159.1,147.8,157C147.8,157.1,147.8,157.1,147.8,157z M131.2,155.7c-0.4,1.4-0.6,3.9,0,5.8 c-2.1,2.8-4.2,4.5-5.8,4.5c-0.5,0-1.8,0-1.8-2.8c0-4.2,1.6-9.1,4.6-14.1c1.7-3,3.7-4.7,5.4-4.7c1.7,0,2.7,1.1,2.7,3 c0,2-0.6,4.7-1.7,7.4c-0.4-0.4-0.9-0.6-1.5-0.6C132.2,154.2,131.3,154.8,131.2,155.7z M107.8,155.7c-0.4,1.4-0.6,3.9,0,5.8 c-2.1,2.8-4.2,4.5-5.8,4.5c-0.5,0-1.8,0-1.8-2.8c0-4.2,1.6-9.1,4.6-14.1c1.7-3,3.7-4.7,5.4-4.7c1.7,0,2.7,1.1,2.7,3 c0,2-0.6,4.7-1.7,7.4c-0.4-0.4-0.9-0.6-1.5-0.6C108.8,154.2,108,154.8,107.8,155.7z M200.5,151.9c1.4,0,3.6-0.4,5.1-0.9 c2,1.8,3.3,5,3.3,8.2c0,6.2-4,10.5-9.8,10.5c-3.4,0-7-1.2-7-4.4c0-1.7,1.4-3.2,2.9-3.2c1.1,0,2.1,1,2.6,2.6c0.3,0.8,1.1,1.4,2,1.4 c0.7,0,1.3-0.3,1.7-0.9c0.4-0.6,0.5-1.3,0.2-1.9c-1.3-3.4-3.7-5.3-6.6-5.3c-1.6,0-3.1,0.6-4.3,1.5c1.6-3.6,2.9-7.7,4.2-11.8 c0,0.1,0,0.2,0,0.3C194.9,151.9,199,151.9,200.5,151.9z M203.7,128.7c2.1,0.4,4,1.4,5.4,2.8c1.6,1.6,2.4,3.7,2.3,6.1 c0,3.3-2.1,6.8-5.3,8.7c-2.1-1.3-5.2-2-7.3-2c-1.5,0-2.7,0.6-3.3,1.6c1.3-4.1,2.5-8,4-10.9c0.6-1.3,2-2.6,3.1-2.8 c0.8-0.2,1.6-0.9,1.6-2.4C204.1,129.4,203.9,129,203.7,128.7z M195.1,146.6C195.1,146.6,195.1,146.6,195.1,146.6l-0.7-0.2 L195.1,146.6z"></path>
  <path class="secret-illustration-fill" d="M215.8,163.3c0,5.7,3.3,6.8,6,6.8c2.7,0,5.7-1.9,8.3-5.1c1.3,0.9,2.8,1.3,4.4,1.3c3.5,0,6.2-2.2,8.7-7 c0,0,0.1-0.1,0.1-0.1c0,0,0.1-0.2,0.2-0.5c0.3-0.5,0.5-1.1,0.8-1.6c0-0.1,0-0.1,0.1-0.2c1.2-2.7,3.2-7.2,4.5-10.1 c0.1,0.5,0.1,1,0.2,1.5l0.1,1.1c0.2,1.7,0.5,4.2,0.9,6.7l-9.4,10.6c-0.4,0.4-0.5,0.8-0.5,1.4c0,0.7,0.3,1.2,0.7,1.5 c0.8,0.8,2.3,0.7,3-0.2l7.4-8.3c1.8,6.1,4.6,9,8.6,9c5.6,0,9.1-6.7,11.9-13l0-0.1c0.1-0.2,0.2-0.5,0.2-0.8c0-1.1-1-2.1-2.1-2.1 c-0.8,0-1.5,0.5-1.9,1.3c-1.4,3.1-4.7,10.5-8.1,10.5c-2.4,0-4.2-2.9-5.3-8.6l12.3-13.8c0.4-0.4,0.6-0.9,0.6-1.4 c0-0.5-0.2-1-0.7-1.5c-0.8-0.8-2.1-0.8-3,0.1l-10,11.3c-0.1-0.7-0.2-1.4-0.2-2.1l-0.2-2c-0.3-2.2-0.5-4.1-0.8-5.6 c-0.1-0.6-0.6-2.5-2.8-2.5c-2.4,0-3.3,2.3-3.9,3.7l0.4,0.2l-0.4-0.1c-0.2,0.4-3.4,7.7-5.1,11.6c0,0,0,0.1-0.1,0.1 c-1.9,4.6-3.8,6.7-5.9,6.7c-0.9,0-1.5-0.2-2-0.6c2.6-4.7,4.5-10.4,4.5-14.1c0-4.3-2.6-7.1-6.8-7.2c-3.4,0-6.5,2.3-9.1,6.7 C217.5,152.6,215.8,158,215.8,163.3z M230.1,144.4c1.7,0,2.7,1.1,2.7,3c0,2-0.6,4.7-1.7,7.4c-0.4-0.4-0.9-0.6-1.5-0.6 c-1,0-1.9,0.7-2,1.6c-0.4,1.4-0.6,3.9,0,5.8c-2.1,2.8-4.2,4.5-5.8,4.5c-0.5,0-1.8,0-1.8-2.8c0-4.2,1.6-9.1,4.6-14.1 C226.4,146,228.3,144.4,230.1,144.4z"></path>
  <rect x="43.3" y="176.8" class="secret-illustration-fill" width="224.3" height="3"></rect>
  <path class="secret-illustration-fill" d="M105.5,228.4c0.7,2.8,2.7,4.4,5.4,4.4c2.5,0,4.8-1.3,7-4c0.6,2.5,2.4,4,5,4c3,0,5.3-1.3,7.5-3.7 c0.2,0.8,0.6,1.6,1.2,2.2c0.9,1,2.2,1.5,3.6,1.5c2.5,0,4.5-1.3,6.3-3.4c0.8,2.1,2.5,3.4,4.8,3.4c3,0,5.4-1.3,7.5-3.7 c0.2,0.8,0.6,1.6,1.2,2.2c0.9,1,2.2,1.5,3.6,1.5c2.8,0,5-1.6,7-4.2c0.9,3.4,3.5,4.2,5.7,4.2c2.7,0,5.7-1.9,8.3-5.1 c1.3,0.9,2.8,1.3,4.4,1.3c0.8,0,1.5-0.1,2.2-0.3c-0.2,0.5-0.3,1-0.5,1.4c-0.4,1.1,0.2,2.2,1.3,2.7c1.1,0.3,2.2-0.3,2.6-1.4 l4.2-11.8c2-5.3,6.3-12.6,9.3-12.6c1.6,0,2.3,0.7,2.3,2.3c0,2.4-1.1,5.2-2.2,8.2c-1.2,3.2-2.5,6.5-2.5,9.5c0,3.6,2,5.8,5.1,5.8 c4.9,0,7.9-4.6,11.7-13.1c0.1-0.2,0.2-0.5,0.2-0.8c0-0.8-0.5-1.5-1.3-1.9c-0.2-0.1-0.5-0.2-0.8-0.2c-0.8,0-1.5,0.5-1.9,1.2 c-3.7,7.9-5.6,10.6-7.9,10.6c-0.5,0-1,0-1-1.7c0-2.1,1-4.9,2.2-8c1.2-3.4,2.5-6.9,2.5-9.8c0-4.2-2.2-6.4-6.4-6.4 c-1.4,0-2.9,0.5-4.3,1.5c-0.1-0.2-0.2-0.4-0.3-0.6c-0.4-0.6-1-0.9-1.7-0.9c-0.9,0-1.7,0.5-2,1.4c-1.2,3.3-2.8,7.8-4.5,12.5 c-0.1,0.4-0.3,0.8-0.4,1.2c0,0.1-0.1,0.1-0.1,0.2c-1.9,4.6-3.8,6.7-5.9,6.7c-0.9,0-1.5-0.2-2-0.6c2.6-4.7,4.5-10.4,4.5-14.1 c0-4.3-2.6-7.1-6.8-7.2c-3.4,0-6.5,2.3-9.1,6.7c-1.8,3-3.1,5.9-4,8.7c-2,4.4-4.7,10.4-7.8,10.4c-0.5,0-1,0-1-1.7 c0-2.2,0.9-4.7,5.3-17.1l1.5-4.3c0.2-0.7,0.2-1.3-0.2-1.8c-0.4-0.5-1-0.9-1.8-0.9c-0.9,0-1.6,0.6-1.9,1.4l-0.1,0.3 c-1.5,3.9-3.4,8.9-4.9,13.4c0,0,0,0.1-0.1,0.1c-2.9,6.4-5.6,10.6-9.2,10.6c-0.7,0-1.1-0.6-1.1-1.7c0-1.6,0.8-4.4,3.2-11.1l1.9-5.3 c0.6-1.7,1-2.9,1.3-3.6h4.3c1.2,0,2.1-0.9,2.1-2.1c0-1.1-0.9-2.1-2.1-2.1H153c1.5-4.1,2.2-6,2.4-7c0.2-0.6,0.1-1.3-0.2-1.9 c-0.4-0.6-1-0.9-1.7-0.9c-0.9,0-1.7,0.5-2,1.4c-0.1,0.3-2.3,6.5-2.9,8.3h-4c-1.1,0-2.1,0.9-2.1,2.1c0,1.2,0.9,2.1,2.1,2.1h2.6 l-2.6,7.4c-0.4,1.1-0.9,2.4-1.3,3.6c0,0.1-0.1,0.1-0.1,0.2c-2,4.4-4.7,10.5-7.9,10.5c-0.5,0-1,0-1-1.7c0-2.2,0.9-4.7,5.3-17.1 l1.5-4.3c0.2-0.7,0.2-1.3-0.2-1.8c-0.4-0.5-1-0.9-1.8-0.9c-0.9,0-1.6,0.6-1.9,1.4l-0.1,0.3c-1.5,3.9-3.4,8.9-4.9,13.4 c0,0,0,0,0,0.1c-2.9,6.4-5.6,10.6-9.2,10.6c-0.3,0-1.1,0-1.1-1.7c0-1.7,1.5-6.1,1.9-7.6c0.4-1.2,4.2-12.1,6.5-18.6l1.8-5.1 c0.2-0.6,0.1-1.3-0.3-1.9c-0.4-0.5-1-0.9-1.7-0.9c-0.8,0-1.6,0.5-1.9,1.3l-3.2,9.1l-0.6,1.6c-1.2-1.4-3-2.1-5.2-2.1 c-6,0-10.8,8.1-12.9,15.5c-4,9.6-9,13.9-16.2,13.9c-5.6,0-9.1-3.3-9.1-8.5c0-5.8,3.8-10.9,9.7-13.2c2.1,1.3,4,1.9,5.9,1.9 c2.6,0,4.3-1.6,4.3-3.9c0-2.2-2.3-3.4-4.5-3.4c-1.1,0-3.5,0.4-5,0.8c-1.3-1.2-2-2.8-2-4.1c0-0.6,0-1,0.1-1.5c1.4,0.4,3,0.7,5.1,0.7 c6.4,0,13.3-3.4,13.4-8.5c0-3.3-2.9-5.6-7.3-5.6c-5.7,0-10.9,3.1-13.6,7.9c-2.9-1.9-4.3-3.3-5.9-6.6c-0.5-1-1.6-1.4-2.8-1 c-0.7,0.4-1.2,1-1.2,1.8c0,0.4,0.1,0.6,0.2,0.9c1.8,3.8,4.8,7.1,8.1,8.8c-0.2,0.7-0.4,1.8-0.4,3.1c0,1.9,0.7,3.9,2.1,5.6 c-6.6,3.2-10.4,9.1-10.4,16.2c0,7.6,5.3,12.6,13.2,12.6C96.5,236.4,101.5,233.9,105.5,228.4z M110.3,219.6c0-0.1,0.1-0.2,0.1-0.4 c1.8-5.8,5.4-12,8.8-12.1c2.4,0,2.9,1.9,3,3.6c-0.2,0.5-0.4,1-0.7,1.6c-0.2,0.6-0.5,1.2-0.7,1.8l0,0c-2.1,5.4-5.7,14.5-10,14.5 c-0.5,0-1.5,0-1.5-3.5c0-1.6,0.4-3.5,1-5.4C110.3,219.7,110.3,219.7,110.3,219.6z M179.5,207.1c1.7,0,2.7,1.1,2.7,3 c0,2-0.6,4.7-1.7,7.4c-0.4-0.4-0.9-0.6-1.5-0.6c-1,0-1.9,0.7-2,1.6c-0.4,1.4-0.6,3.9,0,5.8c-2.1,2.8-4.2,4.5-5.8,4.5 c-0.5,0-1.8,0-1.8-2.8c0-4.2,1.6-9.1,4.6-14.1C175.8,208.8,177.7,207.1,179.5,207.1z M100.7,191.1c1.6,0,3.2,0.5,3.2,1.4 c-0.1,2.4-5.2,4.4-9.3,4.4c-1.3,0-2.5-0.1-3.6-0.4C93,193.2,96.7,191.1,100.7,191.1z"></path>
  <path class="secret-illustration-fill" d="M138.7,198.7c0,1.6,1.3,2.8,2.9,2.8c1.6,0,2.8-1.2,2.8-2.8s-1.2-2.8-2.8-2.8 C140,195.9,138.7,197.1,138.7,198.7z"></path>
  <path class="secret-illustration-fill" d="M162.1,198.7c0,1.6,1.3,2.8,2.9,2.8c1.6,0,2.8-1.2,2.8-2.8s-1.2-2.8-2.8-2.8 C163.4,195.9,162.1,197.1,162.1,198.7z"></path>
  <path class="secret-illustration-fill" d="M233.8,187.5c-0.5-0.2-1.1-0.2-1.6,0.1c-0.5,0.3-0.8,0.7-1,1.2l-11.6,32.9c-0.4,1.1,0.1,2.3,1.2,2.7 c0.2,0.1,0.5,0.1,0.7,0.1c0.3,0,0.6-0.1,0.9-0.2c0.5-0.2,0.9-0.7,1.1-1.2l11.6-32.9C235.5,189.1,234.9,187.9,233.8,187.5z"></path>
  <path class="secret-illustration-fill" d="M215.9,230.5c0,1.6,1.2,2.8,2.8,2.8c1.6,0,2.9-1.3,2.9-2.8c0-1.6-1.3-2.9-2.9-2.9 C217.2,227.6,215.9,228.9,215.9,230.5z"></path>
  <rect x="86.7" y="239.5" class="secret-illustration-fill" width="137.4" height="3"></rect>
  <path class="secret-illustration-fill" d="M257.9,56.4c-26.5-27.5-62.1-43-100.3-43.7c-0.9,0-1.7,0-2.6,0c-77.6,0-141.5,62.5-142.9,140.4 c-0.5,29,7.5,56.9,23.4,80.9c1.3,1.9,3.9,2.4,5.7,1.1l4.7-3.3c1.8-1.3,2.3-3.7,1.1-5.5c-14.2-21.7-21.5-46.8-21-73 C27.2,82.1,86.3,25.4,157.4,26.5C191.8,27.2,224,41.2,248,66c23.9,24.8,36.8,57.5,36.2,92c-0.4,23.5-7.2,46.2-19.5,66 c-1.2,1.9-0.6,4.3,1.2,5.5l4.8,3.2c1.9,1.3,4.5,0.7,5.7-1.2c13.7-21.9,21.2-47.2,21.7-73.2C298.7,120,284.5,83.9,257.9,56.4z"></path>
</g>
<g>
  <path class="secret-illustration-fill" d="M58.6,243.1c0.3-0.1,0.5-0.1,0.6,0c0.2,0,0.3,0.1,0.5,0.3c0.2,0.2,0.3,0.5,0.3,0.7c0,0.2-0.2,0.5-0.5,0.7 l-1.9,1.7c-0.3,0.3-0.6,0.4-0.8,0.4c-0.2,0-0.4-0.2-0.7-0.5c-0.2-0.2-0.3-0.4-0.3-0.6c0-0.2,0.1-0.5,0.3-0.8c0.4-0.5,0.5-1,0.5-1.5 c0-0.5-0.3-0.9-0.7-1.4c-0.7-0.8-1.4-1.1-2.3-1.1c-0.9,0-1.8,0.5-2.8,1.3c-1,0.8-1.5,1.7-1.7,2.5s0.1,1.7,0.7,2.4 c0.4,0.5,1.1,0.9,2,1.3c0.9,0.3,1.4,0.6,1.5,0.7c0.2,0.2,0.2,0.4,0.2,0.7c0,0.3-0.2,0.5-0.4,0.7c-0.4,0.4-1.2,0.3-2.2-0.1 c-1-0.4-2-1.1-2.8-2.1c-1.1-1.3-1.6-2.7-1.4-4.3c0.2-1.5,0.9-2.9,2.3-4.1c1.3-1.1,2.8-1.7,4.4-1.6s2.9,0.7,4,2 c0.3,0.4,0.6,0.7,0.8,1.1S58.5,242.5,58.6,243.1z"></path>
  <path class="secret-illustration-fill" d="M65,252.2l-5,5.4l3.3,3l1.2-1.3c0.3-0.3,0.6-0.5,0.8-0.5c0.2,0,0.5,0.1,0.8,0.3s0.4,0.5,0.4,0.8 c0,0.3-0.2,0.5-0.5,0.9l-2,2.2c-0.2,0.3-0.4,0.4-0.6,0.4c-0.2,0-0.4-0.1-0.7-0.4l-6.5-6c-0.3-0.3-0.5-0.6-0.5-0.8 c0-0.2,0.1-0.5,0.4-0.8c0.3-0.3,0.5-0.4,0.8-0.4c0.2,0,0.5,0.1,0.8,0.4l0.6,0.6l5-5.4l-0.6-0.6c-0.3-0.3-0.5-0.6-0.5-0.8 c0-0.2,0.1-0.5,0.4-0.8c0.3-0.3,0.5-0.4,0.8-0.4s0.5,0.1,0.8,0.4l3.1,2.8c0.3,0.3,0.5,0.6,0.5,0.8c0,0.3-0.1,0.5-0.4,0.8 c-0.3,0.3-0.5,0.4-0.8,0.4c-0.3,0-0.5-0.2-0.9-0.4L65,252.2z"></path>
  <path class="secret-illustration-fill" d="M78.7,263.4l-4.3,5.9l1.3,1c0.4,0.3,0.6,0.5,0.6,0.8c0.1,0.3,0,0.5-0.2,0.8c-0.2,0.3-0.5,0.5-0.7,0.5 c-0.3,0-0.6-0.1-0.9-0.3l-4.7-3.4c-0.4-0.3-0.6-0.5-0.6-0.8c-0.1-0.3,0-0.5,0.3-0.8c0.2-0.3,0.5-0.5,0.7-0.5c0.2,0,0.6,0.1,0.9,0.4 l1.3,1l4.3-5.9l-1.3-1c-0.4-0.3-0.6-0.5-0.6-0.8c-0.1-0.3,0-0.5,0.3-0.8c0.2-0.3,0.5-0.5,0.7-0.5c0.2,0,0.6,0.1,0.9,0.4l4.7,3.4 c0.4,0.3,0.6,0.5,0.6,0.8c0.1,0.2,0,0.5-0.3,0.8c-0.2,0.3-0.5,0.5-0.7,0.5s-0.6-0.1-0.9-0.4L78.7,263.4z"></path>
  <path class="secret-illustration-fill" d="M94,270.8c0.2-0.1,0.4-0.2,0.6-0.2c0.2,0,0.3,0,0.5,0.1c0.3,0.2,0.4,0.3,0.5,0.6c0,0.2-0.1,0.5-0.3,0.9 l-1.2,2.2c-0.2,0.4-0.4,0.6-0.6,0.7c-0.2,0.1-0.5,0-0.8-0.2c-0.2-0.1-0.4-0.3-0.5-0.5c-0.1-0.2-0.1-0.5,0-0.8 c0.2-0.6,0.1-1.2,0-1.6c-0.2-0.4-0.6-0.8-1.1-1.1c-0.9-0.5-1.7-0.6-2.5-0.3s-1.5,1.1-2.2,2.2c-0.6,1.1-0.9,2.1-0.7,3 c0.1,0.9,0.6,1.5,1.5,2c0.6,0.3,1.4,0.5,2.3,0.5c0.9,0,1.5,0.1,1.7,0.2c0.2,0.1,0.4,0.3,0.4,0.6c0,0.3,0,0.5-0.2,0.8 c-0.3,0.5-1,0.7-2.1,0.7c-1.1-0.1-2.3-0.4-3.4-1c-1.5-0.8-2.4-2-2.8-3.5c-0.4-1.5-0.1-3.1,0.8-4.6c0.9-1.5,2.1-2.5,3.6-3 c1.5-0.5,3-0.3,4.4,0.5c0.4,0.2,0.8,0.5,1.1,0.8C93.4,270,93.7,270.4,94,270.8z"></path>
  <path class="secret-illustration-fill" d="M102.7,277l-1.2,2.7l4-1.6c-0.3-0.2-0.5-0.3-0.5-0.5c-0.1-0.2,0-0.4,0.1-0.8c0.2-0.4,0.3-0.6,0.6-0.7 c0.2-0.1,0.6,0,1,0.1l2.2,0.9c0.4,0.2,0.7,0.4,0.8,0.6c0.1,0.2,0.1,0.5-0.1,0.9c-0.1,0.3-0.3,0.5-0.6,0.6c-0.2,0.1-0.5,0.1-0.9-0.1 l-0.2-0.1l-3.7,1.5c0.3,0.6,0.6,1.2,0.7,2c0.2,0.8,0.2,1.9,0.3,3.3l0.1,0.1l0.2,0.1c0.4,0.2,0.6,0.3,0.7,0.6c0.1,0.2,0.1,0.5,0,0.8 c-0.2,0.4-0.3,0.6-0.6,0.7c-0.2,0.1-0.6,0-1-0.1l-1.1-0.5c-0.5-0.2-0.7-0.7-0.8-1.5c0-0.1,0-0.3,0-0.3c0-1-0.1-1.8-0.3-2.4 c-0.1-0.6-0.4-1.2-0.6-1.7l-1.2,0.5l-0.7,1.7l0.1,0.1c0.3,0.1,0.5,0.3,0.6,0.6c0.1,0.2,0.1,0.5,0,0.8c-0.2,0.4-0.3,0.6-0.6,0.7 c-0.2,0.1-0.6,0-1-0.1l-2.3-1c-0.4-0.2-0.7-0.4-0.8-0.6c-0.1-0.2-0.1-0.5,0.1-0.9c0.1-0.3,0.3-0.5,0.6-0.6c0.2-0.1,0.5-0.1,0.8,0.1 l0.2,0.1l2.8-6.7l-0.2-0.1c-0.3-0.1-0.5-0.3-0.6-0.6c-0.1-0.2-0.1-0.5,0.1-0.8c0.1-0.4,0.3-0.6,0.6-0.7c0.2-0.1,0.6,0,1,0.1l2.3,1 c0.4,0.2,0.7,0.4,0.8,0.6c0.1,0.2,0.1,0.5-0.1,0.9c-0.1,0.3-0.3,0.5-0.6,0.6c-0.2,0.1-0.5,0.1-0.9-0.1L102.7,277z"></path>
  <path class="secret-illustration-fill" d="M136.7,286.7l-2-0.3l-1.2,7.2l1.6,0.3c0.4,0.1,0.7,0.2,0.9,0.4c0.2,0.2,0.2,0.5,0.1,0.9 c-0.1,0.4-0.2,0.6-0.4,0.8c-0.2,0.1-0.5,0.2-1,0.1l-5.7-1c-0.4-0.1-0.7-0.2-0.9-0.4c-0.2-0.2-0.2-0.5-0.1-0.9 c0.1-0.4,0.2-0.6,0.4-0.8c0.2-0.1,0.5-0.2,1-0.1l1.6,0.3l1.2-7.2l-2-0.3l-0.4,2l0,0.2c-0.1,0.3-0.2,0.5-0.4,0.7 c-0.2,0.1-0.5,0.2-0.8,0.1c-0.4-0.1-0.6-0.2-0.8-0.4c-0.1-0.2-0.2-0.5-0.1-0.9l0-0.1l0.6-2.9c0.1-0.6,0.3-0.9,0.4-1 c0.2-0.1,0.5-0.1,0.9,0l8.3,1.4c0.4,0.1,0.7,0.2,0.8,0.3c0.1,0.1,0.1,0.5,0.1,1.1l-0.4,2.9l0,0.1c-0.1,0.4-0.2,0.7-0.4,0.8 c-0.2,0.2-0.5,0.2-0.8,0.1c-0.3-0.1-0.6-0.2-0.7-0.4c-0.1-0.2-0.1-0.5-0.1-1L136.7,286.7z"></path>
  <path class="secret-illustration-fill" d="M148.8,285.3c1.6,0.1,2.9,0.7,3.9,1.9c1,1.2,1.4,2.7,1.3,4.5c-0.1,1.8-0.7,3.2-1.8,4.3 c-1.1,1.1-2.4,1.6-4.1,1.5c-1.6-0.1-2.9-0.7-3.9-1.9c-1-1.2-1.4-2.7-1.3-4.5c0.1-1.8,0.7-3.2,1.8-4.3 C145.8,285.7,147.1,285.2,148.8,285.3z M148.6,287.6c-0.8,0-1.5,0.3-2,0.9c-0.5,0.7-0.8,1.6-0.9,2.8c-0.1,1.2,0.1,2.2,0.6,2.9 c0.4,0.7,1.1,1.1,1.9,1.1c0.8,0,1.5-0.3,2-0.9c0.5-0.7,0.8-1.6,0.9-2.8c0.1-1.2-0.1-2.2-0.6-2.9C150.1,288,149.5,287.6,148.6,287.6 z"></path>
  <path class="secret-illustration-fill" d="M178.6,291.3l0.4,2l1-0.2c0.4-0.1,0.7-0.1,0.9,0.1c0.2,0.1,0.3,0.4,0.4,0.8c0.1,0.4,0,0.7-0.1,0.9 s-0.4,0.3-0.8,0.4l-3.3,0.6c-0.4,0.1-0.7,0-1-0.1c-0.2-0.1-0.4-0.4-0.4-0.8c-0.1-0.3,0-0.6,0.1-0.8c0.1-0.2,0.4-0.3,0.7-0.4l0.2,0 l-1.3-7.2l-0.2,0c-0.3,0.1-0.6,0-0.8-0.1c-0.2-0.1-0.3-0.4-0.4-0.7c-0.1-0.4,0-0.7,0.1-0.9c0.2-0.2,0.4-0.3,0.9-0.4l4-0.7 c1.6-0.3,2.8-0.2,3.7,0.3c0.9,0.5,1.5,1.3,1.7,2.5c0.2,1.2,0,2.3-0.7,3c-0.7,0.8-1.8,1.3-3.4,1.6L178.6,291.3z M177.7,286.1l0.5,3 l1.4-0.2c0.8-0.1,1.3-0.4,1.6-0.7c0.3-0.3,0.5-0.7,0.4-1.3c-0.1-0.5-0.3-0.8-0.8-1c-0.4-0.2-1-0.2-1.8-0.1L177.7,286.1z"></path>
  <path class="secret-illustration-fill" d="M197.4,285.6c0.2,0.1,0.4,0.2,0.6,0.4c0,0,0.1,0.1,0.1,0.1l2.3,2l0.1,0l0.2-0.1c0.4-0.1,0.7-0.1,0.9,0 c0.2,0.1,0.4,0.3,0.5,0.7c0.1,0.4,0.1,0.7,0,0.9c-0.1,0.2-0.4,0.4-0.8,0.5l-1.2,0.4c-0.4,0.1-0.8,0-1.2-0.3l0,0l-3.4-2.8 c-0.1-0.1-0.3-0.2-0.4-0.2c-0.1,0-0.3,0-0.4,0l-0.9,0.3l0.7,2.5l0.2,0c0.3-0.1,0.6-0.1,0.8,0c0.2,0.1,0.4,0.3,0.5,0.7 c0.1,0.4,0.1,0.7,0,0.9s-0.4,0.4-0.8,0.5l-2.4,0.7c-0.4,0.1-0.7,0.1-1,0c-0.2-0.1-0.4-0.3-0.5-0.7c-0.1-0.3-0.1-0.6,0-0.8 c0.1-0.2,0.3-0.4,0.7-0.5l0.2,0l-2.1-7l-0.2,0c-0.3,0.1-0.6,0.1-0.8,0s-0.4-0.4-0.5-0.7c-0.1-0.4-0.1-0.7,0-0.9 c0.1-0.2,0.4-0.4,0.8-0.5l4.3-1.3c1.3-0.4,2.4-0.4,3.2-0.1c0.8,0.3,1.4,1,1.7,2c0.2,0.7,0.2,1.4,0,2 C198.4,284.6,198,285.1,197.4,285.6z M192.3,282.7l0.8,2.7l1.3-0.4c0.8-0.2,1.3-0.5,1.6-0.8c0.3-0.3,0.3-0.7,0.2-1.2 c-0.1-0.5-0.4-0.8-0.7-0.9c-0.3-0.1-0.8-0.1-1.5,0.1L192.3,282.7z"></path>
  <path class="secret-illustration-fill" d="M210.7,275.9l-4.2,1.8l1,2.3l1.6-0.7l0-0.1c-0.1-0.3-0.2-0.6-0.1-0.9c0.1-0.2,0.3-0.4,0.6-0.5 c0.3-0.1,0.5-0.1,0.8-0.1c0.2,0.1,0.4,0.2,0.5,0.5c0,0,0,0.1,0.1,0.1c0,0.1,0.1,0.1,0.1,0.2l0.8,1.9c0.2,0.4,0.2,0.7,0.2,1 c-0.1,0.2-0.3,0.4-0.6,0.6c-0.3,0.1-0.6,0.2-0.8,0.1s-0.4-0.3-0.5-0.6l-0.1-0.2l-1.6,0.7l1.2,2.7l4.2-1.8l-0.5-1.1 c-0.2-0.4-0.2-0.7-0.1-1c0.1-0.2,0.3-0.4,0.6-0.6c0.3-0.1,0.6-0.2,0.8-0.1c0.2,0.1,0.4,0.4,0.6,0.8l0.9,2.2 c0.1,0.3,0.2,0.6,0.1,0.7c-0.1,0.2-0.3,0.3-0.7,0.5l-7.4,3.2c-0.4,0.2-0.7,0.2-1,0.1c-0.2-0.1-0.4-0.3-0.6-0.7 c-0.1-0.3-0.2-0.6-0.1-0.8c0.1-0.2,0.3-0.4,0.6-0.6l0.2-0.1l-2.9-6.7l-0.2,0.1c-0.3,0.1-0.6,0.1-0.8,0.1c-0.2-0.1-0.4-0.3-0.6-0.6 c-0.1-0.3-0.2-0.6-0.1-0.9c0.1-0.2,0.4-0.4,0.7-0.6l7.4-3.2c0.4-0.2,0.6-0.2,0.8-0.2c0.2,0.1,0.3,0.2,0.5,0.6l0.9,2 c0.2,0.4,0.2,0.7,0.2,1c-0.1,0.2-0.3,0.4-0.6,0.6c-0.3,0.2-0.6,0.2-0.9,0.1c-0.2-0.1-0.4-0.4-0.6-0.8L210.7,275.9z"></path>
  <path class="secret-illustration-fill" d="M219.9,271.3l5.5,4.8l-1.4-7.2l-0.2,0.1c-0.4,0.2-0.7,0.3-0.9,0.3c-0.2-0.1-0.5-0.2-0.7-0.6 c-0.2-0.3-0.3-0.6-0.2-0.9c0.1-0.2,0.3-0.5,0.7-0.7l2.1-1.2c0.4-0.2,0.7-0.3,0.9-0.3c0.3,0.1,0.5,0.2,0.7,0.6 c0.2,0.3,0.2,0.6,0.2,0.8c-0.1,0.3-0.2,0.5-0.5,0.6l-0.1,0.1l1.7,8.9c0.1,0.5,0.1,0.8,0,0.9c-0.1,0.2-0.3,0.3-0.6,0.5l-1,0.6 c-0.5,0.3-1,0.2-1.5-0.2l0,0l-6.9-5.8l-0.1,0.1c-0.3,0.2-0.6,0.2-0.8,0.1c-0.2-0.1-0.5-0.3-0.6-0.6c-0.2-0.3-0.3-0.6-0.2-0.9 c0.1-0.2,0.3-0.5,0.7-0.7l2.5-1.5c0.4-0.2,0.7-0.3,0.9-0.2c0.3,0.1,0.5,0.2,0.7,0.6s0.2,0.6,0.2,0.9c-0.1,0.2-0.3,0.5-0.7,0.7 L219.9,271.3z"></path>
  <path class="secret-illustration-fill" d="M235.5,261.1l4.4,5.9l1.3-1c0.4-0.3,0.7-0.4,0.9-0.4c0.3,0,0.5,0.2,0.7,0.5c0.2,0.3,0.3,0.6,0.3,0.8 c-0.1,0.3-0.3,0.5-0.6,0.8l-4.7,3.5c-0.4,0.3-0.7,0.4-0.9,0.4c-0.3,0-0.5-0.2-0.7-0.5c-0.2-0.3-0.3-0.6-0.3-0.8 c0.1-0.2,0.3-0.5,0.6-0.8l1.3-1l-4.4-5.9l-1.3,1c-0.4,0.3-0.7,0.4-0.9,0.4c-0.3,0-0.5-0.2-0.7-0.5c-0.2-0.3-0.3-0.6-0.3-0.8 c0.1-0.2,0.3-0.5,0.6-0.8l4.7-3.5c0.4-0.3,0.7-0.4,0.9-0.4c0.2,0,0.5,0.2,0.7,0.5c0.2,0.3,0.3,0.6,0.3,0.8 c-0.1,0.3-0.3,0.5-0.6,0.8L235.5,261.1z"></path>
  <path class="secret-illustration-fill" d="M248.2,250l-3.3,3.1l1.7,1.8l1.3-1.2l-0.1-0.1c-0.3-0.3-0.4-0.5-0.4-0.8c0-0.2,0.1-0.5,0.4-0.7 c0.2-0.2,0.4-0.3,0.7-0.3c0.3,0,0.5,0.1,0.6,0.3c0,0,0,0,0.1,0.1c0.1,0,0.1,0.1,0.2,0.1l1.4,1.5c0.3,0.3,0.5,0.6,0.5,0.8 c0,0.2-0.1,0.5-0.4,0.7c-0.2,0.2-0.5,0.3-0.7,0.3c-0.2,0-0.5-0.1-0.7-0.4l-0.1-0.1l-1.3,1.2l2,2.1l3.3-3.1l-0.8-0.8 c-0.3-0.3-0.5-0.6-0.5-0.9c0-0.3,0.1-0.5,0.4-0.8c0.3-0.3,0.5-0.4,0.8-0.3c0.2,0,0.5,0.2,0.8,0.5l1.6,1.7c0.2,0.3,0.4,0.5,0.3,0.7 c0,0.2-0.2,0.4-0.5,0.7l-5.8,5.5c-0.3,0.3-0.6,0.4-0.8,0.4c-0.3,0-0.5-0.1-0.8-0.4c-0.2-0.3-0.4-0.5-0.3-0.8c0-0.3,0.1-0.5,0.4-0.7 l0.1-0.1l-5-5.3l-0.1,0.1c-0.2,0.2-0.5,0.3-0.8,0.3c-0.3,0-0.5-0.1-0.7-0.4c-0.3-0.3-0.4-0.5-0.4-0.8c0-0.3,0.2-0.5,0.5-0.8 l5.8-5.5c0.3-0.3,0.5-0.4,0.7-0.4c0.2,0,0.4,0.1,0.6,0.4l1.5,1.6c0.3,0.3,0.5,0.6,0.5,0.9c0,0.3-0.1,0.5-0.4,0.8 c-0.3,0.3-0.5,0.4-0.8,0.3c-0.3,0-0.5-0.2-0.8-0.5L248.2,250z"></path>
  <path class="secret-illustration-fill" d="M254.9,243.1l4.6,3.4l-2.5-3.7c-0.2-0.3-0.3-0.5-0.3-0.8c0-0.3,0.1-0.5,0.3-0.8c0.2-0.3,0.4-0.4,0.7-0.5 c0.2-0.1,0.5,0,0.8,0.1l4,1.8l-4.2-4l-0.2,0.2c-0.2,0.3-0.5,0.5-0.7,0.5c-0.3,0-0.5-0.1-0.8-0.3c-0.3-0.3-0.5-0.5-0.5-0.7 c0-0.2,0.1-0.5,0.4-0.9l1.5-1.8c0.3-0.3,0.6-0.5,0.8-0.6c0.2,0,0.5,0.1,0.8,0.3c0.3,0.2,0.4,0.5,0.4,0.7c0,0.3-0.1,0.5-0.3,0.8 l-0.1,0.1l6,6.3c0.2,0.2,0.4,0.4,0.4,0.6c0,0.1-0.1,0.3-0.3,0.6l-0.3,0.4c-0.2,0.2-0.3,0.3-0.5,0.4c-0.2,0-0.4,0-0.8-0.2l-5.6-2.4 l3.3,5.1c0.2,0.4,0.4,0.6,0.4,0.8c0,0.2-0.1,0.4-0.3,0.6l-0.3,0.4c-0.2,0.3-0.4,0.4-0.5,0.4c-0.1,0-0.4-0.1-0.6-0.3l-7.2-4.8 l-0.1,0.1c-0.2,0.3-0.5,0.4-0.7,0.4c-0.3,0-0.5-0.1-0.8-0.3c-0.3-0.2-0.4-0.5-0.5-0.8c0-0.3,0.1-0.5,0.4-0.9l1.5-1.8 c0.3-0.3,0.6-0.5,0.8-0.6c0.2,0,0.5,0.1,0.8,0.3c0.3,0.2,0.4,0.5,0.4,0.7c0,0.3-0.1,0.5-0.3,0.8L254.9,243.1z"></path>
</g>
</svg>